<svg width="138" height="60" viewBox="0 0 138 60" fill="none" xmlns="http://www.w3.org/2000/svg">
<path fill-rule="evenodd" clip-rule="evenodd" d="M30.1932 2.58715C27.8964 3.14795 25.9186 3.70175 25.7982 3.818C25.6781 3.93425 24.9657 6.24834 24.2156 8.96062C22.7381 14.3025 22.5901 14.6129 21.6148 14.4179C21.3427 14.3633 18.7704 13.3333 15.8982 12.1287C12.2648 10.6048 10.6114 9.9888 10.4631 10.1037C10.3008 10.2297 10.25 11.5159 10.25 15.4943C10.25 19.8579 10.2079 20.7796 9.99487 21.0839C9.85459 21.2841 8.00788 22.6907 5.89118 24.2097C3.7743 25.7286 2.00516 27.0682 1.95982 27.1865C1.87016 27.4202 4.18186 37.5181 4.42425 37.951C4.50538 38.0962 6.05345 39.3772 7.86436 40.7978C9.6751 42.2183 11.3162 43.5961 11.5112 43.8596L11.866 44.3386L11.0556 48.2831C10.4035 51.4583 10.2874 52.269 10.4607 52.4403C10.5792 52.5574 13.054 53.798 15.9603 55.1971C20.2634 57.269 21.287 57.7014 21.4741 57.5267C21.6004 57.4089 22.3042 55.03 23.0381 52.2404C23.7717 49.4509 24.4738 47.072 24.5981 46.9541C24.7223 46.8361 26.5753 45.4662 28.7159 43.9096L32.6081 41.0795H37.5231C42.326 41.0795 42.9773 41.0361 42.9773 40.716C42.9773 40.6299 42.0185 38.9187 40.8466 36.9135C38.5968 33.0637 38.3123 32.2735 39.0366 31.8859C39.2128 31.7915 40.8811 31.2876 42.744 30.7662C44.6067 30.2448 46.4527 29.7008 46.8463 29.5573C47.7105 29.2427 47.6309 29.6625 48.055 23.1859L48.3616 18.5023L47.4166 17.1269C44.5293 12.924 42.3567 9.89215 42.1798 9.81903C42.0693 9.77334 40.2802 10.3195 38.2039 11.0327C33.9125 12.5069 33.5607 12.533 33.4648 11.3835C33.436 11.0385 33.7695 8.79477 34.2061 6.39766C34.6428 4.00039 34.9564 1.92545 34.9031 1.78653C34.8499 1.64778 34.7079 1.54158 34.5877 1.55079C34.4677 1.55999 32.4901 2.02636 30.1932 2.58715ZM30.2302 3.35556C28.1635 3.85994 27.7532 4.01454 27.5147 4.37846C27.2972 4.71016 27.2728 4.90925 27.4063 5.25869C27.5889 5.73664 30.3275 9.70448 30.9238 10.3551C31.3714 10.8435 32.321 10.881 32.5675 10.4202C32.6612 10.245 33.0119 8.63437 33.3468 6.84101C33.9731 3.48664 33.972 3.07602 33.3374 2.83261C32.9614 2.68823 32.973 2.68636 30.2302 3.35556ZM25.8023 6.51306C25.5286 6.84289 23.8864 12.8795 23.8864 13.5559C23.8864 14.1832 24.2318 14.4886 24.9405 14.4885C25.1577 14.4885 26.5585 14.227 28.0537 13.9074C30.7958 13.321 31.216 13.126 31.216 12.4398C31.216 12.1314 30.9064 11.6492 28.7012 8.52272C27.3016 6.53829 27.1569 6.38846 26.5932 6.34073C26.2436 6.31124 25.9095 6.38403 25.8023 6.51306ZM37.2062 12.1645C34.5887 13.052 34.1137 13.3399 34.1137 14.0393C34.1137 14.2454 35.0566 15.3279 36.535 16.8193C38.6814 18.984 39.0206 19.2614 39.5217 19.2614C39.9463 19.2614 40.1271 19.1659 40.2483 18.8778C40.426 18.4563 41.2728 13.0785 41.2728 12.3726C41.2728 11.8243 40.7171 11.2456 40.2074 11.2635C39.9964 11.2708 38.6459 11.6763 37.2062 12.1645ZM11.4432 11.7614C11.124 12.0806 11.1023 12.3295 11.1023 15.6931C11.1023 17.8423 11.1732 19.4161 11.2787 19.6135C11.6205 20.252 12.4261 20.0226 16.1503 18.2257C18.1083 17.281 19.8444 16.387 20.0086 16.239C20.3537 15.9276 20.4083 14.9485 20.0938 14.7092C19.7415 14.4411 12.3662 11.4204 12.064 11.4204C11.9101 11.4204 11.6307 11.5739 11.4432 11.7614ZM42.1343 13.1078C42.0332 13.2965 41.7518 14.7293 41.5087 16.2919C41.0258 19.3955 41.0682 19.8426 41.8637 20.0422C42.4264 20.1835 45.8164 18.9903 46.3438 18.4653C47.0185 17.7939 46.9479 17.634 44.4033 14.0625C43.6484 13.0028 43.4842 12.8635 42.9356 12.8172C42.4579 12.7768 42.2761 12.8427 42.1343 13.1078ZM27.6432 14.7479C24.9403 15.3303 24.5682 15.5129 24.5682 16.2564C24.5682 16.6278 29.7073 21.9196 30.2287 22.0851C30.6506 22.2189 31.1849 22.0243 31.376 21.6672C31.4638 21.503 31.6182 20.2234 31.719 18.8236C31.8199 17.4237 31.9436 15.9564 31.9944 15.563C32.0681 14.9899 32.0167 14.7781 31.7363 14.4977C31.2739 14.0352 30.8215 14.0628 27.6432 14.7479ZM32.9154 15.8618C32.6367 16.3826 32.2063 22.2915 32.4183 22.6877C32.7644 23.3344 33.3908 23.2863 35.9035 22.4207C37.216 21.9685 38.3858 21.5235 38.5029 21.4318C38.6202 21.34 38.7137 21.0252 38.7112 20.732C38.7071 20.2791 38.3589 19.8455 36.4015 17.8551C34.4856 15.907 34.0128 15.5114 33.5998 15.5114C33.2728 15.5114 33.0388 15.6312 32.9154 15.8618ZM17.328 18.4111C15.3693 19.3498 13.6237 20.2471 13.449 20.4053C13.2277 20.6056 13.1467 20.8764 13.182 21.2981L13.233 21.9034L17.1535 23.4786C19.3097 24.345 21.2081 25.0546 21.3722 25.0553C21.5364 25.0561 21.8239 24.9034 22.0114 24.7159C22.3302 24.3972 22.3523 24.1478 22.3523 20.8807C22.3523 17.6136 22.3302 17.3642 22.0114 17.0454C21.8239 16.8579 21.4948 16.7045 21.28 16.7045C21.0652 16.7045 19.2869 17.4724 17.328 18.4111ZM23.5455 18.0682C23.2291 18.3845 23.2046 18.6363 23.2046 21.5625C23.2046 24.4887 23.2291 24.7404 23.5455 25.0568C23.733 25.2443 24.0277 25.3977 24.2004 25.3977C24.7953 25.3977 29.4095 24.3598 29.6307 24.1762C29.7526 24.0752 29.8523 23.7493 29.8523 23.4522C29.8523 22.9817 29.5146 22.5767 27.2404 20.3195C24.5057 17.6052 24.1968 17.4169 23.5455 18.0682ZM44.0853 20.2953C43.054 20.6669 42.1097 21.1041 41.9866 21.2668C41.5634 21.8265 41.9179 22.4864 43.7548 24.5572C45.3903 26.401 45.6127 26.5909 46.137 26.5909C46.5136 26.5909 46.7708 26.4868 46.8744 26.2926C47.0154 26.0282 47.4091 21.9421 47.4091 20.7431C47.4091 20.1808 46.862 19.5992 46.3438 19.611C46.1328 19.6156 45.1165 19.9236 44.0853 20.2953ZM11.7841 22.8409C11.5966 23.0284 11.4441 23.3543 11.4453 23.5653C11.4489 24.2869 12.4385 29.8006 12.6277 30.1543C13.0395 30.9237 13.4981 30.8068 16.6003 29.1404C20.4255 27.0859 20.4773 27.0482 20.4773 26.3275C20.4773 25.9106 20.3691 25.6779 20.0938 25.5037C19.5577 25.1644 12.7315 22.5 12.3981 22.5C12.2479 22.5 11.9716 22.6534 11.7841 22.8409ZM35.6558 23.2858C34.4882 23.7061 33.4336 24.1324 33.312 24.2333C32.8332 24.6307 33.0676 25.4212 34.0567 26.7462C35.9992 29.348 36.3067 29.6591 36.9361 29.6591C37.6695 29.6591 37.7091 29.581 38.5481 26.4753C39.3202 23.6163 39.3829 22.9362 38.8977 22.6764C38.3648 22.3912 37.8966 22.4794 35.6558 23.2858ZM7.07021 24.2308C5.86595 25.0889 4.70823 25.9461 4.4972 26.1354C4.06442 26.5241 3.97374 27.4558 4.33919 27.759C4.62385 27.9953 9.12896 30.0552 9.96283 30.3305C10.6835 30.5683 11.2012 30.4524 11.4439 29.9988C11.6144 29.6802 10.998 25.112 10.5875 23.6533C10.4128 23.0325 10.0162 22.6704 9.51044 22.6704C9.37254 22.6704 8.2743 23.3726 7.07021 24.2308ZM40.2855 23.3949C40.0325 23.7 38.5455 29.3218 38.5455 29.9732C38.5455 30.3919 38.6461 30.5645 38.9781 30.7157C39.3451 30.8829 39.851 30.7882 42.3151 30.0897C44.6982 29.4141 45.2679 29.1922 45.4902 28.8528C45.8873 28.2469 45.6996 27.9208 43.5064 25.4076C41.7661 23.4135 41.5066 23.1818 41.0132 23.1818C40.7101 23.1818 40.3827 23.2778 40.2855 23.3949ZM26.8042 25.6682C25.737 25.892 24.7591 26.1622 24.631 26.2687C24.5026 26.3751 24.3978 26.725 24.3978 27.0462C24.3978 27.5093 24.6633 27.9806 25.6825 29.3264C26.8544 30.8739 27.0165 31.0227 27.5311 31.0227C27.8549 31.0227 28.2061 30.8957 28.3562 30.7244C28.6847 30.3493 30.3637 26.5505 30.3637 26.1823C30.3637 25.7465 29.725 25.2257 29.2131 25.2443C28.9554 25.2537 27.8713 25.4444 26.8042 25.6682ZM31.2584 26.2926C30.9819 26.6397 29.3469 30.4389 29.2366 30.9907C29.1209 31.5694 29.6171 32.2159 30.177 32.2159C31.0593 32.2159 35.2114 31.6764 35.4944 31.5249C36.147 31.1756 35.9079 30.406 34.6017 28.6514C32.8813 26.3403 32.6145 26.0795 31.9719 26.0795C31.6729 26.0795 31.3518 26.1755 31.2584 26.2926ZM19.5373 28.3133C16.9247 29.6935 14.3795 31.1127 14.1279 31.3297C13.9586 31.4756 13.8296 31.8247 13.8296 32.1366C13.8296 32.6226 14.0796 32.9161 15.9853 34.667C17.807 36.3407 18.2263 36.6477 18.6916 36.6477C18.9945 36.6477 19.3203 36.5519 19.4154 36.4347C19.683 36.1053 21.5 29.5159 21.5 28.8753C21.5 27.9266 20.702 27.6982 19.5373 28.3133ZM22.7329 28.5966C22.5625 28.7671 22.0373 30.3097 21.5219 32.1539C20.4981 35.8171 20.5027 36.1364 21.58 36.1364C22.0088 36.1364 22.6827 35.8035 24.1735 34.855C26.352 33.4691 26.7841 33.0735 26.7841 32.4649C26.7841 32.0173 24.4324 28.7581 23.9064 28.4766C23.4212 28.217 23.0774 28.2522 22.7329 28.5966ZM3.39675 29.2422C3.2309 29.6059 3.31476 30.1829 3.90828 32.7574C4.29862 34.4514 4.70584 35.9431 4.81288 36.0721C5.27874 36.6334 6.0197 36.3423 7.94891 34.8399C8.98016 34.0369 9.99658 33.2197 10.2074 33.0239C10.636 32.6262 10.7307 31.6918 10.3728 31.3948C10.2528 31.2953 8.9476 30.6721 7.47249 30.0102C4.47129 28.6636 3.72436 28.523 3.39675 29.2422ZM32.4944 32.7443C30.1126 33.0326 29.8223 33.0982 29.4991 33.4214C29.3185 33.602 29.1705 33.8884 29.1705 34.0575C29.1705 34.4037 31.0712 37.7192 31.6083 38.3097C31.8292 38.5524 32.1543 38.6932 32.4944 38.6932C33.1956 38.6932 33.4803 38.3587 34.7686 36.0216C36.5877 32.7211 36.2854 32.2854 32.4944 32.7443ZM10.3223 33.969C9.51999 34.4385 6.31595 37.0365 6.14465 37.3566C5.80033 37.9999 6.12521 38.4893 7.7609 39.7916C10.6261 42.0724 10.9711 42.2335 11.6137 41.5909C11.9319 41.2727 11.9546 41.0228 11.9546 37.8409C11.9546 34.659 11.9319 34.4091 11.6137 34.0909C11.2274 33.7047 10.8373 33.6678 10.3223 33.969ZM36.7767 34.1335C36.2831 34.5801 34.1307 38.3945 33.9979 39.0586C33.9345 39.3757 34.0145 39.6167 34.2664 39.8686C34.6029 40.2051 34.8044 40.2273 37.534 40.2273C39.2132 40.2273 40.5823 40.1526 40.7727 40.0508C41.42 39.7043 41.1998 38.8428 39.8892 36.5964C38.6212 34.4229 38.0617 33.75 37.5228 33.75C37.3457 33.75 37.01 33.9225 36.7767 34.1335ZM26.5816 34.1616C25.9559 34.4881 22.8492 36.479 22.4802 36.7901C22.1229 37.0912 22.083 38.0581 22.4166 38.3349C22.5456 38.4419 24.234 38.811 26.1686 39.1549C30.182 39.8683 30.5817 39.8446 30.6741 38.8866C30.7177 38.4331 30.4856 37.9127 29.517 36.2928C28.0612 33.8582 27.6857 33.5855 26.5816 34.1616ZM12.9833 34.4206C12.8793 34.6149 12.8069 36.0895 12.8069 38.0114C12.8069 39.9332 12.8793 41.4078 12.9833 41.6021C13.1031 41.826 13.3358 41.9296 13.7077 41.925C14.1362 41.9197 14.674 41.5849 16.1733 40.3902C18.7729 38.319 18.7729 38.3402 16.1749 35.8946C14.5579 34.3727 14.1729 34.0909 13.7092 34.0909C13.3404 34.0909 13.1017 34.1993 12.9833 34.4206ZM21.3119 39.5632C20.814 40.0611 20.9302 40.4679 22.2852 42.9701C23.6866 45.5581 23.7884 45.6818 24.5133 45.6818C24.9734 45.6818 25.5782 45.3237 27.5551 43.8804C29.8717 42.1894 30.0228 42.0445 30.0228 41.5149C30.0228 41.2047 29.9052 40.8532 29.7613 40.7339C29.5315 40.5431 22.7459 39.2136 21.9688 39.2071C21.8046 39.2057 21.5091 39.366 21.3119 39.5632ZM16.429 41.0983C14.6842 42.5006 14.5114 42.6902 14.5114 43.2022C14.5114 43.5118 14.6096 43.8467 14.7298 43.9462C14.9767 44.1511 20.6723 45.6818 21.1879 45.6818C21.3719 45.6818 21.6708 45.6024 21.8522 45.5054C22.4909 45.1635 22.2613 44.2485 20.9345 41.8466L19.7103 39.6307L19.0285 39.5939C18.4029 39.5601 18.1883 39.6844 16.429 41.0983ZM12.6475 44.9792C12.3899 45.4606 11.6137 49.1933 11.6137 49.9508C11.6137 50.6334 11.9256 50.9659 12.5655 50.9659C12.9117 50.9659 20.1189 48.1244 20.4321 47.8645C20.5508 47.766 20.6478 47.4249 20.6478 47.1061C20.6478 46.3846 20.6902 46.4039 16.9414 45.426C13.6656 44.5713 12.9079 44.4925 12.6475 44.9792ZM17.6648 49.7995C15.5086 50.6552 13.6065 51.4747 13.4377 51.6206C13.2262 51.8039 13.1469 52.0733 13.182 52.4913L13.233 53.0966L16.4716 54.6854C18.2529 55.5591 19.9049 56.3134 20.1427 56.3613C21.0057 56.5353 21.2531 56.0712 22.1761 52.5455C22.6481 50.7423 23.0341 49.1891 23.0341 49.0938C23.0341 48.779 22.3591 48.2386 21.9688 48.241C21.7578 48.2424 19.8211 48.9436 17.6648 49.7995Z" fill="#00DC84"/>
<g clip-path="url(#clip0_307_28)">
<path fill-rule="evenodd" clip-rule="evenodd" d="M56.3059 4.90587C56.0634 5.00388 55.995 7.5928 55.995 16.6749C55.995 27.063 56.0375 28.3348 56.3885 28.4696C56.6049 28.5527 58.9274 28.6166 61.5499 28.6119C68.1123 28.6 70.7271 28.1 72.634 26.4921C74.8473 24.626 75.0361 20.5797 73.0195 18.2239C72.5767 17.7065 71.7666 17.0655 71.2191 16.7991L70.2239 16.315L71.1211 15.8118C71.6146 15.5349 72.3588 14.8238 72.7747 14.2313C73.4593 13.2564 73.5312 12.9719 73.5282 11.2483C73.5252 9.61036 73.4272 9.17954 72.8305 8.17859C71.9527 6.70628 70.0988 5.49191 68.0839 5.06979C66.6104 4.76085 56.9969 4.62703 56.3059 4.90587ZM76.392 5.48743C75.8139 6.06551 75.7923 6.23466 76.1858 7.09855C76.7315 8.296 78.4578 8.12835 78.7794 6.84657C79.1468 5.38271 77.4581 4.42132 76.392 5.48743ZM58.2337 11.1063V15.4815L63.2707 15.3971C67.966 15.3185 68.3887 15.273 69.4976 14.727C72.8198 13.091 72.1877 8.38007 68.4765 7.11546C67.6208 6.82393 66.2487 6.73115 62.7912 6.73115H58.2337V11.1063ZM83.5434 6.89831C83.168 7.00004 83.1081 7.33883 83.1081 9.36112V11.706H81.3669H79.6256V12.5766V13.4472H81.3669H83.1081V19.0154C83.1081 25.6571 83.3319 26.7466 84.9353 27.9079C85.7858 28.5241 86.1452 28.6206 87.5924 28.6206C89.3565 28.6206 91.0679 28.0913 91.0679 27.5455C91.0679 27.3682 90.9171 27.0169 90.7328 26.765C90.4423 26.3677 90.2885 26.3448 89.5764 26.5931C88.177 27.0809 86.7059 26.9548 85.9204 26.2794L85.2224 25.6795L85.1478 19.5633L85.0734 13.4472H87.8218H90.5704V12.5766V11.706H87.8431H85.1159L85.0448 9.28078C84.9796 7.05999 84.9316 6.85229 84.4762 6.81772C84.2025 6.79707 83.7829 6.83339 83.5434 6.89831ZM129.685 6.89134C129.468 6.98238 129.374 7.72513 129.374 9.36361V11.706H127.648C125.803 11.706 125.509 11.8816 125.749 12.8396C125.892 13.4109 126.005 13.4472 127.626 13.4472H129.351L129.425 19.7725C129.507 26.8117 129.503 26.7961 131.362 28.0609C132.863 29.0825 137.092 28.632 137.082 27.4518C137.074 26.4919 136.703 26.2685 135.646 26.5854C133.436 27.2473 131.575 26.6287 131.276 25.1327C131.188 24.6912 131.116 21.8849 131.116 18.8967V13.4636L133.914 13.3933L136.712 13.3229L136.79 12.5144L136.868 11.706H134.001H131.134L131.062 9.28078C130.997 7.06372 130.948 6.85154 130.494 6.80826C130.22 6.78239 129.856 6.81971 129.685 6.89134ZM97.2996 11.9476C96.5544 12.2237 95.5748 12.808 95.1231 13.246L94.3015 14.0422V12.8741V11.706H93.3033H92.3049L92.3705 20.1011L92.4359 28.4962H93.3066H94.1772L94.306 22.8995C94.4431 16.9481 94.5483 16.3789 95.7477 15.0949C97.1559 13.587 99.9025 13.0186 102.304 13.738C103.494 14.0947 104.87 15.5586 105.228 16.8498C105.376 17.3816 105.493 20.126 105.494 23.0813L105.495 28.3624L106.116 28.5184C107.482 28.8611 107.485 28.8512 107.485 22.901C107.485 16.7025 107.219 15.3494 105.683 13.7497C103.682 11.6642 100.126 10.8998 97.2996 11.9476ZM114.465 11.9471C112.556 12.6545 111.373 13.503 110.474 14.8101C109.128 16.7662 108.884 17.5876 108.889 20.1633C108.892 22.2065 108.982 22.7149 109.557 23.9186C110.417 25.722 111.591 26.9092 113.382 27.7886C114.688 28.4301 115.067 28.4962 117.44 28.4962C119.883 28.4962 120.165 28.443 121.677 27.6985C123.664 26.7202 124.621 25.7936 124.25 25.2058C123.674 24.2917 123.242 24.2649 122.308 25.085C121.066 26.1757 118.313 26.9941 116.634 26.7714C113.695 26.3814 111.434 24.4049 110.854 21.718L110.679 20.9095H118.197H125.714L125.576 18.9818C125.499 17.9214 125.253 16.6227 125.028 16.0956C124.418 14.6631 122.578 12.8361 121.095 12.1888C119.243 11.3814 116.283 11.2735 114.465 11.9471ZM76.4509 20.1011L76.5164 28.4962H77.387H78.2576L78.323 20.1011L78.3886 11.706H77.387H76.3853L76.4509 20.1011ZM115.818 13.4229C114.21 13.8509 113.251 14.4278 112.38 15.4912C111.593 16.4511 110.719 18.2726 110.719 18.9509C110.719 19.0706 113.667 19.1683 117.271 19.1683H123.823L123.658 18.1112C123.351 16.1411 122.149 14.5929 120.356 13.8557C119.207 13.3831 116.822 13.1557 115.818 13.4229ZM58.2337 21.904V26.4314L63.5195 26.3227C69.0252 26.2095 70.0182 26.0424 71.1298 25.0414C73.3073 23.0808 72.6076 19.5439 69.7662 18.1485C68.6314 17.5911 68.2369 17.5488 63.3951 17.4654L58.2337 17.3769V21.904ZM56.1087 31.4195C56.043 31.5908 56.0184 36.1521 56.0542 41.5558L56.1194 51.3806L57.0489 51.4578L57.9785 51.5346L58.0439 42.8761L58.1093 34.2173L61.7646 39.7287C63.7752 42.7602 65.5154 45.2994 65.6321 45.3713C65.989 45.5919 66.3097 45.2389 67.6292 43.1721C69.0115 41.007 72.3409 35.9095 73.1508 34.7183L73.6558 33.9756V42.7403V51.505H74.5264H75.397V41.3065V31.108L74.3398 31.1162C73.2954 31.1245 73.268 31.1476 72.0621 33.044C70.7729 35.0718 68.1939 39.0569 66.7552 41.2443C66.2828 41.9625 65.8617 42.5502 65.8191 42.5502C65.742 42.5502 65.1637 41.6854 60.6221 34.777L58.2101 31.108H57.2191C56.6549 31.108 56.1766 31.2421 56.1087 31.4195ZM103.008 41.3065V51.5366L103.816 51.4585L104.624 51.3806L104.694 48.0602L104.763 44.7397L106.567 46.4433C111.122 50.7471 112.093 51.505 113.048 51.505C113.545 51.505 113.952 51.4135 113.952 51.3018C113.952 51.1901 112.976 50.2106 111.783 49.1253C110.591 48.04 108.827 46.403 107.866 45.4877L106.117 43.8233L108.604 41.4981C109.972 40.219 111.595 38.7042 112.211 38.1316L113.33 37.0903L112.182 37.0841C111.059 37.0781 110.965 37.1418 107.953 39.9357L104.873 42.7938L104.749 37.013L104.624 31.2324L103.816 31.1546L103.008 31.0764V41.3065ZM130.369 34.9636V37.0779H128.877H127.384V37.8241V38.5703H128.877H130.369V43.591C130.369 48.1848 130.414 48.7037 130.892 49.6922C131.46 50.864 132.267 51.4102 133.763 51.6346C135.083 51.8324 136.942 51.2568 137.025 50.6245C137.132 49.7984 136.736 49.4181 136.115 49.7509C135.82 49.9088 135.005 50.0043 134.305 49.9631C133.247 49.9009 132.944 49.771 132.515 49.1947C132.042 48.5592 131.991 48.0863 131.902 43.545L131.804 38.589L134.258 38.5176L136.712 38.446L136.791 37.7619L136.87 37.0779H134.366H131.862V34.9636V32.8492H131.116H130.369V34.9636ZM82.3128 37.163C80.0488 37.8002 78.1812 39.5643 77.4265 41.7789C77.0489 42.8863 77.0763 45.6742 77.4755 46.7906C78.1001 48.5373 79.2642 49.8832 80.9126 50.7645C82.2591 51.4846 82.7377 51.6077 84.2274 51.6177C85.6462 51.6272 86.2313 51.5003 87.3874 50.9327C88.1678 50.5493 89.0913 49.8971 89.4396 49.4832L90.0729 48.7308V50.1337V51.5366L90.8813 51.4585L91.6897 51.3806L91.7556 44.2293L91.8218 37.0779H90.9472H90.0729V38.3298V39.582L89.2403 38.7494C88.7826 38.2915 88.0215 37.7336 87.5491 37.5095C86.3392 36.9354 83.7344 36.763 82.3128 37.163ZM98.3759 37.0518C97.2402 37.246 96.1435 37.8584 95.4885 38.6636C95.0659 39.1838 95.0587 39.175 95.0532 38.135C95.048 37.1274 95.0127 37.0779 94.3015 37.0779H93.5553V44.3071V51.5366L94.3637 51.4585L95.1721 51.3806L95.2965 46.2324L95.4209 41.0842L96.2915 40.1792C96.7703 39.6815 97.4643 39.1158 97.8337 38.9223C98.6267 38.5069 100.451 38.4619 101.429 38.8338C102 39.0509 102.178 39.0208 102.44 38.6619C102.946 37.9711 102.818 37.6328 101.95 37.3585C100.7 36.9632 99.4978 36.86 98.3759 37.0518ZM118.43 37.0605C116.538 37.4386 114.764 38.8569 113.799 40.762C113.175 41.9918 113.082 42.4537 113.082 44.2915C113.083 46.2095 113.159 46.5456 113.9 47.9137C115.359 50.6031 118.604 52.1371 121.574 51.5408C123.418 51.1705 125.214 50.3521 126.012 49.5193L126.689 48.8134L126.035 48.3853C125.441 47.9962 125.343 47.9925 124.952 48.346C124.716 48.5599 123.907 49.0213 123.155 49.3713C120.105 50.7906 116.721 49.7437 115.329 46.9508C114.982 46.2553 114.699 45.5404 114.699 45.362C114.699 45.1038 115.991 45.0377 121.025 45.0377C128.316 45.0377 127.865 45.2178 127.379 42.4998C126.61 38.1935 123.182 36.1103 118.43 37.0605ZM118.605 38.6731C117.949 38.8512 117.067 39.3206 116.645 39.7163C115.911 40.4066 114.706 42.5858 114.701 43.2343C114.699 43.4738 115.982 43.5452 120.295 43.5452C126.531 43.5452 126.164 43.6646 125.647 41.8018C124.961 39.3327 121.63 37.8527 118.605 38.6731ZM81.9887 38.9606C79.9913 39.9974 78.7894 42.0177 78.8177 44.2915C78.8486 46.7722 79.9152 48.4733 82.0541 49.4526C85.2007 50.8934 88.9391 49.3024 89.7983 46.157C90.142 44.8991 90.1448 43.4412 89.8062 42.2217C89.4846 41.0638 87.9971 39.3609 86.9094 38.9054C85.8069 38.444 82.922 38.4763 81.9887 38.9606Z" fill="#FCFCFC"/>
</g>
<defs>
<clipPath id="clip0_307_28">
<rect width="82.0854" height="49.5" fill="white" transform="translate(55 3)"/>
</clipPath>
</defs>
</svg>
