<?xml version="1.0" encoding="utf-8"?>
<!-- Generator: Adobe Illustrator 27.5.0, SVG Export Plug-In . SVG Version: 6.00 Build 0)  -->
<svg version="1.1" id="BACKGROUND" xmlns="http://www.w3.org/2000/svg" xmlns:xlink="http://www.w3.org/1999/xlink" x="0px" y="0px"
	 viewBox="0 0 750 500" style="enable-background:new 0 0 750 500;" xml:space="preserve">
<g>
	<linearGradient id="SVGID_1_" gradientUnits="userSpaceOnUse" x1="172.9968" y1="-99.8798" x2="577.0032" y2="599.8798">
		<stop  offset="0" style="stop-color:#241F54"/>
		<stop  offset="1" style="stop-color:#370E63"/>
	</linearGradient>
	<rect style="fill:url(#SVGID_1_);" width="750" height="500"/>
	<g>
		<defs>
			<rect id="SVGID_00000181089664174071350830000013312182148425773443_" width="750" height="500"/>
		</defs>
		<clipPath id="SVGID_00000088121817928673905810000002513673147175636122_">
			<use xlink:href="#SVGID_00000181089664174071350830000013312182148425773443_"  style="overflow:visible;"/>
		</clipPath>
		<g style="clip-path:url(#SVGID_00000088121817928673905810000002513673147175636122_);">
			<g>
				<path style="fill:none;stroke:#C21DFF;stroke-width:0.6079;stroke-miterlimit:10;" d="M345.252,558.812
					c11.761-27.764,56.751,17.153,74.857,1.364c12.241-10.674-11.478-65.997,13.857-70.442
					c27.751-4.87,48.904,113.321,75.536,110.454c36.401-3.919-50.002-93.385-25.918-120.741
					c29.236-33.207,84.981,73.142,112.49,34.772c27.508-38.37,5.763-140.083,74.828-151.228
					c65.469-10.565,105.959,80.797,154.483,43.64"/>
				<path style="fill:none;stroke:#C01DFE;stroke-width:0.6065;stroke-miterlimit:10;" d="M343.684,558.464
					c12.566-30.031,59.22,15.49,77.66-1.003c12.455-11.131-11.519-66.133,13.775-70.764c27.535-4.937,49.578,112.38,76.082,109.363
					c36.226-4.123-50.385-92.699-26.573-120.087c28.905-33.246,85.093,72.328,112.246,33.951
					c27.153-38.378,4.855-139.541,73.565-151.057c65.132-10.916,106.033,79.825,154.122,42.528"/>
				<path style="fill:none;stroke:#BE1EFD;stroke-width:0.6051;stroke-miterlimit:10;" d="M342.115,558.116
					c13.371-32.298,61.688,13.827,80.462-3.369c12.669-11.588-11.577-66.361,13.693-71.085
					c27.301-5.104,50.252,111.438,76.628,108.273c36.052-4.326-50.769-92.013-27.228-119.434
					c28.575-33.286,85.204,71.515,112.001,33.129c26.797-38.385,3.947-138.999,72.302-150.885
					c64.796-11.267,106.106,78.853,153.761,41.417"/>
				<path style="fill:none;stroke:#BD1EFC;stroke-width:0.6036;stroke-miterlimit:10;" d="M340.547,557.769
					c14.177-34.565,64.156,12.164,83.264-5.735c12.883-12.045-11.627-66.542,13.611-71.407
					c27.075-5.219,50.926,110.496,77.174,107.182c35.877-4.53-51.152-91.326-27.884-118.78
					c28.245-33.325,85.316,70.701,111.758,32.307c26.442-38.393,3.039-138.456,71.039-150.713
					c64.459-11.619,106.18,77.881,153.4,40.305"/>
				<path style="fill:none;stroke:#BB1EFB;stroke-width:0.6022;stroke-miterlimit:10;" d="M338.978,557.421
					c14.982-36.832,66.624,10.501,86.067-8.102c13.097-12.502-11.678-66.722,13.529-71.729c26.849-5.332,51.6,109.554,77.72,106.091
					c35.702-4.733-51.536-90.64-28.539-118.126c27.915-33.365,85.427,69.887,111.514,31.485
					c26.086-38.401,2.131-137.914,69.776-150.541c64.123-11.97,106.253,76.909,153.039,39.193"/>
				<path style="fill:none;stroke:#B91EFA;stroke-width:0.6008;stroke-miterlimit:10;" d="M337.41,557.073
					c15.787-39.099,69.092,8.838,88.869-10.468c13.311-12.959-11.729-66.902,13.447-72.05
					c26.623-5.444,52.273,108.612,78.266,105.001c35.528-4.936-51.919-89.953-29.194-117.472
					c27.585-33.404,85.539,69.073,111.27,30.664c25.73-38.409,1.223-137.371,68.513-150.37
					c63.786-12.321,106.326,75.937,152.678,38.082"/>
				<path style="fill:none;stroke:#B71FF9;stroke-width:0.5994;stroke-miterlimit:10;" d="M335.841,556.726
					c16.592-41.366,71.561,7.175,91.672-12.834c13.526-13.417-11.78-67.081,13.365-72.372
					c26.396-5.555,52.947,107.671,78.812,103.91c35.353-5.14-52.303-89.267-29.85-116.818
					c27.255-33.444,85.651,68.259,111.026,29.842c25.375-38.417,0.315-136.829,67.25-150.198
					c63.45-12.673,106.4,74.965,152.317,36.97"/>
				<path style="fill:none;stroke:#B61FF8;stroke-width:0.598;stroke-miterlimit:10;" d="M334.273,556.378
					c17.397-43.633,74.029,5.512,94.474-15.201c13.74-13.873-11.832-67.258,13.283-72.693c26.17-5.664,53.621,106.729,79.358,102.82
					c35.178-5.343-52.686-88.581-30.505-116.164c26.925-33.483,85.762,67.445,110.782,29.02
					c25.019-38.425-0.593-136.286,65.988-150.026c63.113-13.024,106.473,73.993,151.956,35.858"/>
				<path style="fill:none;stroke:#B41FF7;stroke-width:0.5965;stroke-miterlimit:10;" d="M332.705,556.03
					c18.202-45.9,76.497,3.849,97.276-17.567c13.954-14.33-11.884-67.435,13.201-73.015c25.943-5.771,54.295,105.787,79.904,101.729
					c35.003-5.547-53.07-87.894-31.161-115.511c26.595-33.523,85.874,66.631,110.538,28.198
					c24.664-38.432-1.501-135.744,64.725-149.854c62.777-13.375,106.547,73.021,151.595,34.747"/>
				<path style="fill:none;stroke:#B220F6;stroke-width:0.5951;stroke-miterlimit:10;" d="M331.136,555.683
					c19.007-48.167,78.965,2.186,100.079-19.933c14.168-14.787-11.936-67.611,13.119-73.337
					c25.717-5.877,54.969,104.845,80.45,100.639c34.828-5.75-53.453-87.208-31.816-114.857
					c26.265-33.562,85.985,65.817,110.294,27.376c24.308-38.44-2.409-135.202,63.462-149.683
					c62.44-13.727,106.62,72.049,151.234,33.635"/>
				<path style="fill:none;stroke:#B020F5;stroke-width:0.5937;stroke-miterlimit:10;" d="M329.568,555.335
					c19.812-50.434,81.433,0.523,102.881-22.299c14.383-15.244-11.989-67.786,13.037-73.658
					c25.49-5.981,55.642,103.904,80.996,99.548c34.654-5.953-53.837-86.522-32.471-114.203
					c25.935-33.602,86.097,65.003,110.05,26.555c23.953-38.448-3.317-134.659,62.199-149.511
					c62.104-14.078,106.694,71.077,150.873,32.524"/>
				<path style="fill:none;stroke:#AE20F4;stroke-width:0.5923;stroke-miterlimit:10;" d="M327.999,554.987
					c20.617-52.701,83.902-1.14,105.684-24.666c14.597-15.701-12.042-67.96,12.955-73.98c25.263-6.084,56.316,102.962,81.542,98.457
					c34.479-6.157-54.22-85.835-33.127-113.549c25.605-33.641,86.208,64.189,109.806,25.733
					c23.597-38.456-4.225-134.117,60.936-149.339c61.768-14.43,106.767,70.105,150.512,31.412"/>
				<path style="fill:none;stroke:#AD20F3;stroke-width:0.5909;stroke-miterlimit:10;" d="M326.431,554.64
					c21.422-54.968,86.37-2.802,108.486-27.032c14.811-16.158-12.096-68.134,12.874-74.302c25.037-6.185,56.99,102.02,82.088,97.367
					c34.304-6.36-54.604-85.149-33.782-112.895c25.275-33.681,86.32,63.375,109.562,24.911
					c23.242-38.464-5.133-133.574,59.673-149.167c61.431-14.781,106.841,69.133,150.151,30.3"/>
				<path style="fill:none;stroke:#AB21F3;stroke-width:0.5895;stroke-miterlimit:10;" d="M324.862,554.292
					c22.227-57.235,88.838-4.465,111.289-29.398c15.025-16.616-12.149-68.306,12.791-74.623
					c24.81-6.284,57.664,101.078,82.634,96.276c34.13-6.564-54.987-84.463-34.438-112.242
					c24.945-33.72,86.431,62.561,109.318,24.089c22.886-38.472-6.041-133.032,58.41-148.996
					c61.095-15.132,106.914,68.161,149.79,29.189"/>
				<path style="fill:none;stroke:#A921F2;stroke-width:0.588;stroke-miterlimit:10;" d="M323.294,553.944
					c23.032-59.502,91.306-6.128,114.091-31.765c15.239-17.073-12.203-68.477,12.71-74.945
					c24.583-6.382,58.338,100.137,83.18,95.186c33.955-6.767-55.371-83.776-35.093-111.588
					c24.615-33.76,86.543,61.747,109.074,23.268c22.531-38.48-6.949-132.49,57.147-148.824
					c60.758-15.484,106.987,67.189,149.429,28.077"/>
				<path style="fill:none;stroke:#A721F1;stroke-width:0.5866;stroke-miterlimit:10;" d="M321.726,553.597
					c23.837-61.769,93.774-7.791,116.893-34.131c15.454-17.529-12.258-68.647,12.628-75.267
					c24.356-6.479,59.011,99.195,83.726,94.095c33.78-6.97-55.754-83.09-35.748-110.934c24.284-33.799,86.655,60.933,108.83,22.446
					c22.175-38.487-7.857-131.947,55.884-148.652c60.422-15.835,107.061,66.217,149.068,26.966"/>
				<path style="fill:none;stroke:#A621F0;stroke-width:0.5852;stroke-miterlimit:10;" d="M320.157,553.249
					c24.643-64.036,96.243-9.454,119.696-36.497c15.668-17.986-12.312-68.816,12.546-75.588
					c24.13-6.574,59.685,98.253,84.272,93.004c33.605-7.174-56.137-82.403-36.404-110.28
					c23.954-33.839,86.766,60.119,108.586,21.624c21.819-38.495-8.765-131.405,54.621-148.48
					c60.086-16.186,107.134,65.245,148.707,25.854"/>
				<path style="fill:none;stroke:#A422EF;stroke-width:0.5838;stroke-miterlimit:10;" d="M318.589,552.901
					c25.448-66.303,98.711-11.117,122.498-38.864c15.882-18.444-12.367-68.984,12.464-75.91
					c23.903-6.667,60.359,97.311,84.818,91.914c33.431-7.377-56.521-81.717-37.059-109.626
					c23.624-33.878,86.878,59.305,108.342,20.802c21.464-38.503-9.673-130.862,53.358-148.308
					c59.749-16.538,107.208,64.272,148.346,24.742"/>
				<path style="fill:none;stroke:#A222EE;stroke-width:0.5824;stroke-miterlimit:10;" d="M317.02,552.554
					c26.253-68.57,101.179-12.78,125.301-41.23c16.096-18.901-12.422-69.151,12.382-76.232
					c23.676-6.759,61.033,96.369,85.364,90.823c33.256-7.581-56.904-81.031-37.714-108.972
					c23.294-33.918,86.989,58.491,108.098,19.98c21.108-38.511-10.581-130.32,52.095-148.137
					c59.413-16.889,107.281,63.3,147.984,23.631"/>
				<path style="fill:none;stroke:#A022ED;stroke-width:0.5809;stroke-miterlimit:10;" d="M315.452,552.206
					c27.058-70.837,103.647-14.443,128.103-43.596c16.31-19.357-12.476-69.317,12.3-76.553c23.45-6.849,61.707,95.428,85.91,89.733
					c33.081-7.784-57.288-80.344-38.37-108.319c22.964-33.957,87.101,57.677,107.854,19.159
					c20.753-38.519-11.489-129.777,50.832-147.965c59.076-17.24,107.355,62.328,147.624,22.519"/>
				<path style="fill:none;stroke:#9E23EC;stroke-width:0.5795;stroke-miterlimit:10;" d="M313.884,551.858
					c27.863-73.105,106.115-16.106,130.906-45.963c16.525-19.815-12.531-69.481,12.218-76.875
					c23.223-6.937,62.38,94.486,86.456,88.642c32.907-7.988-57.671-79.658-39.025-107.665
					c22.634-33.997,87.212,56.863,107.61,18.337c20.397-38.527-12.397-129.235,49.57-147.793
					c58.74-17.592,107.428,61.356,147.262,21.408"/>
				<path style="fill:none;stroke:#9D23EB;stroke-width:0.5781;stroke-miterlimit:10;" d="M312.315,551.51
					c28.668-75.371,108.584-17.769,133.708-48.329c16.739-20.272-12.586-69.645,12.136-77.197
					c22.997-7.024,63.054,93.544,87.002,87.551c32.732-8.191-58.055-78.972-39.68-107.011
					c22.304-34.036,87.324,56.049,107.366,17.515c20.042-38.534-13.305-128.693,48.307-147.621
					c58.403-17.943,107.501,60.384,146.901,20.296"/>
				<path style="fill:none;stroke:#9B23EA;stroke-width:0.5767;stroke-miterlimit:10;" d="M310.747,551.163
					c29.473-77.638,111.052-19.432,136.51-50.695c16.953-20.729-12.642-69.807,12.054-77.518
					c22.771-7.11,63.728,92.602,87.548,86.461c32.557-8.395-58.438-78.285-40.336-106.357
					c21.974-34.076,87.436,55.235,107.122,16.693c19.686-38.542-14.213-128.15,47.044-147.45
					c58.067-18.294,107.575,59.412,146.54,19.184"/>
				<path style="fill:none;stroke:#9923E9;stroke-width:0.5753;stroke-miterlimit:10;" d="M309.178,550.815
					c30.278-79.906,113.52-21.095,139.313-53.061c17.167-21.185-12.697-69.968,11.972-77.84
					c22.545-7.194,64.402,91.661,88.094,85.37c32.383-8.598-58.822-77.599-40.991-105.703
					c21.644-34.116,87.547,54.421,106.878,15.871c19.331-38.55-15.121-127.608,45.781-147.278
					c57.73-18.646,107.648,58.44,146.179,18.073"/>
				<path style="fill:none;stroke:#9724E8;stroke-width:0.5738;stroke-miterlimit:10;" d="M307.61,550.468
					c31.083-82.173,115.988-22.758,142.115-55.428c17.381-21.643-12.752-70.128,11.89-78.161
					c22.319-7.276,65.076,90.719,88.64,84.28c32.208-8.801-59.205-76.912-41.647-105.049c21.314-34.155,87.658,53.607,106.634,15.05
					c18.975-38.558-16.029-127.065,44.518-147.106c57.394-18.997,107.722,57.468,145.818,16.961"/>
				<path style="fill:none;stroke:#9624E7;stroke-width:0.5724;stroke-miterlimit:10;" d="M306.042,550.12
					c31.888-84.44,118.456-24.421,144.918-57.794c17.596-22.1-12.807-70.286,11.808-78.483
					c22.094-7.357,65.749,89.777,89.186,83.189c32.033-9.005-59.589-76.226-42.302-104.396
					c20.984-34.195,87.77,52.794,106.39,14.228c18.62-38.566-16.937-126.523,43.255-146.934
					c57.058-19.349,107.795,56.496,145.457,15.849"/>
				<path style="fill:none;stroke:#9424E6;stroke-width:0.571;stroke-miterlimit:10;" d="M304.473,549.772
					c32.693-86.707,120.925-26.084,147.72-60.16c17.81-22.557-12.862-70.443,11.727-78.805
					c21.868-7.436,66.423,88.835,89.732,82.098c31.858-9.208-59.972-75.54-42.957-103.742
					c20.654-34.234,87.882,51.979,106.146,13.406c18.264-38.573-17.845-125.98,41.992-146.763
					c56.721-19.7,107.869,55.524,145.096,14.738"/>
				<path style="fill:none;stroke:#9225E5;stroke-width:0.5696;stroke-miterlimit:10;" d="M302.905,549.424
					c33.498-88.974,123.393-27.746,150.522-62.527c18.024-23.014-12.917-70.599,11.645-79.126
					c21.643-7.514,67.097,87.893,90.278,81.008c31.684-9.411-60.355-74.853-43.613-103.088
					c20.324-34.274,87.993,51.166,105.902,12.584c17.909-38.581-18.753-125.438,40.729-146.591
					c56.385-20.051,107.942,54.552,144.735,13.626"/>
				<path style="fill:none;stroke:#9025E4;stroke-width:0.5682;stroke-miterlimit:10;" d="M301.336,549.077
					c34.303-91.241,125.861-29.409,153.325-64.893c18.238-23.471-12.972-70.754,11.563-79.448
					c21.418-7.59,67.771,86.952,90.824,79.917c31.509-9.615-60.739-74.167-44.268-102.434
					c19.993-34.313,88.105,50.352,105.658,11.762c17.553-38.589-19.661-124.896,39.466-146.419
					c56.048-20.403,108.016,53.58,144.374,12.514"/>
				<path style="fill:none;stroke:#8E25E3;stroke-width:0.5667;stroke-miterlimit:10;" d="M299.768,548.729
					c35.108-93.508,128.329-31.072,156.127-67.259c18.452-23.928-13.026-70.906,11.481-79.77
					c21.194-7.665,68.445,86.01,91.37,78.827c31.334-9.818-61.122-73.48-44.924-101.78c19.663-34.353,88.216,49.538,105.414,10.941
					c17.197-38.597-20.569-124.353,38.203-146.247c55.712-20.754,108.089,52.608,144.013,11.403"/>
				<path style="fill:none;stroke:#8D25E2;stroke-width:0.5653;stroke-miterlimit:10;" d="M298.199,548.381
					c35.913-95.775,130.797-32.735,158.93-69.626c18.667-24.385-13.081-71.058,11.399-80.091
					c20.97-7.738,69.118,85.068,91.916,77.736c31.159-10.022-61.506-72.794-45.579-101.127
					c19.333-34.392,88.328,48.724,105.17,10.119c16.842-38.605-21.477-123.811,36.94-146.076
					c55.375-21.105,108.162,51.636,143.652,10.291"/>
				<path style="fill:none;stroke:#8B26E1;stroke-width:0.5639;stroke-miterlimit:10;" d="M296.631,548.034
					c36.718-98.042,133.266-34.398,161.732-71.992c18.881-24.842-13.134-71.208,11.317-80.413
					c20.746-7.81,69.792,84.126,92.462,76.645c30.985-10.225-61.889-72.108-46.234-100.473
					c19.003-34.432,88.439,47.91,104.926,9.297c16.486-38.613-22.385-123.268,35.677-145.904
					c55.039-21.457,108.236,50.664,143.291,9.18"/>
				<path style="fill:none;stroke:#8926E0;stroke-width:0.5625;stroke-miterlimit:10;" d="M295.063,547.686
					c37.524-100.309,135.734-36.061,164.535-74.358c19.095-25.299-13.188-71.357,11.235-80.734
					c20.523-7.88,70.466,83.185,93.008,75.555c30.81-10.429-62.273-71.421-46.89-99.819c18.673-34.471,88.551,47.096,104.682,8.475
					c16.131-38.62-23.293-122.726,34.414-145.732c54.702-21.808,108.309,49.692,142.93,8.068"/>
				<path style="fill:none;stroke:#8726DF;stroke-width:0.5611;stroke-miterlimit:10;" d="M293.494,547.338
					c38.329-102.576,138.202-37.724,167.337-76.724c19.309-25.756-13.242-71.504,11.153-81.056
					c20.3-7.949,71.14,82.243,93.554,74.464c30.635-10.632-62.656-70.735-47.545-99.165c18.343-34.511,88.662,46.282,104.438,7.654
					c15.775-38.628-24.201-122.183,33.151-145.56c54.366-22.16,108.383,48.72,142.569,6.956"/>
				<path style="fill:none;stroke:#8626DE;stroke-width:0.5596;stroke-miterlimit:10;" d="M291.926,546.991
					c39.134-104.843,140.67-39.387,170.139-79.091c19.524-26.213-13.294-71.65,11.071-81.378
					c20.077-8.016,71.814,81.301,94.099,73.374c30.461-10.835-63.04-70.049-48.2-98.511c18.013-34.55,88.774,45.468,104.194,6.832
					c15.42-38.636-25.109-121.641,31.889-145.389c54.03-22.511,108.456,47.748,142.208,5.845"/>
				<path style="fill:none;stroke:#8427DD;stroke-width:0.5582;stroke-miterlimit:10;" d="M290.357,546.643
					c39.939-107.11,143.138-41.05,172.942-81.457c19.738-26.67-13.347-71.794,10.989-81.699
					c19.855-8.082,72.487,80.359,94.646,72.283c30.286-11.039-63.423-69.362-48.856-97.858c17.683-34.59,88.886,44.654,103.95,6.01
					c15.064-38.644-26.017-121.099,30.626-145.217c53.693-22.862,108.53,46.776,141.847,4.733"/>
				<path style="fill:none;stroke:#8227DD;stroke-width:0.5568;stroke-miterlimit:10;" d="M288.789,546.295
					c40.744-109.377,145.607-42.713,175.744-83.823c19.952-27.127-13.399-71.936,10.907-82.021
					c19.634-8.146,73.161,79.418,95.191,71.192c30.111-11.242-63.807-68.676-49.511-97.204
					c17.353-34.629,88.997,43.84,103.706,5.188s-26.925-120.556,29.363-145.045c53.357-23.214,108.603,45.804,141.486,3.622"/>
				<path style="fill:none;stroke:#8027DC;stroke-width:0.5554;stroke-miterlimit:10;" d="M287.22,545.948
					c41.549-111.644,148.075-44.376,178.547-86.19c20.166-27.584-13.45-72.077,10.825-82.343
					c19.413-8.209,73.835,78.476,95.738,70.102c29.936-11.446-64.19-67.989-50.167-96.55c17.023-34.669,89.109,43.026,103.462,4.367
					c14.353-38.66-27.833-120.014,28.1-144.873c53.02-23.565,108.677,44.832,141.125,2.51"/>
				<path style="fill:none;stroke:#7E28DB;stroke-width:0.554;stroke-miterlimit:10;" d="M285.652,545.6
					c42.354-113.911,150.543-46.039,181.349-88.556c20.38-28.041-13.501-72.216,10.743-82.664
					c19.192-8.271,74.509,77.534,96.283,69.011c29.762-11.649-64.574-67.303-50.822-95.896
					c16.693-34.708,89.22,42.212,103.218,3.545c13.997-38.667-28.741-119.471,26.837-144.701
					c52.684-23.916,108.75,43.86,140.764,1.398"/>
				<path style="fill:none;stroke:#7D28DA;stroke-width:0.5526;stroke-miterlimit:10;" d="M284.084,545.252
					c43.159-116.178,153.011-47.702,184.152-90.922c20.595-28.498-13.551-72.354,10.661-82.986
					c18.972-8.331,75.183,76.592,96.829,67.921c29.587-11.853-64.957-66.617-51.477-95.242
					c16.363-34.748,89.332,41.398,102.974,2.723c13.642-38.675-29.649-118.929,25.574-144.53
					c52.347-24.268,108.823,42.888,140.403,0.287"/>
				<path style="fill:none;stroke:#7B28D9;stroke-width:0.5511;stroke-miterlimit:10;" d="M282.515,544.905
					c43.964-118.445,155.479-49.365,186.954-93.289c20.809-28.955-13.601-72.49,10.58-83.308
					c18.753-8.389,75.856,75.65,97.375,66.83c29.412-12.056-65.34-65.93-52.133-94.588c16.033-34.787,89.443,40.584,102.73,1.901
					s-30.557-118.387,24.311-144.358c52.011-24.619,108.897,41.916,140.042-0.825"/>
				<path style="fill:none;stroke:#7928D8;stroke-width:0.5497;stroke-miterlimit:10;" d="M280.947,544.557
					c44.769-120.712,157.948-51.028,189.757-95.655c21.023-29.412-13.649-72.624,10.497-83.629
					c18.534-8.447,76.53,74.709,97.921,65.74c29.237-12.259-65.724-65.244-52.788-93.935c15.702-34.827,89.555,39.77,102.486,1.079
					s-31.465-117.844,23.048-144.186c51.674-24.97,108.97,40.944,139.68-1.936"/>
				<path style="fill:none;stroke:#7729D7;stroke-width:0.5483;stroke-miterlimit:10;" d="M279.378,544.209
					c45.574-122.979,160.416-52.691,192.559-98.021c21.237-29.869-13.697-72.756,10.416-83.951
					c18.315-8.503,77.204,73.767,98.467,64.649c29.063-12.463-66.107-64.557-53.443-93.281
					c15.373-34.866,89.667,38.956,102.242,0.258c12.575-38.699-32.373-117.302,21.785-144.014
					c51.338-25.322,109.044,39.972,139.319-3.048"/>
				<path style="fill:none;stroke:#7629D6;stroke-width:0.5469;stroke-miterlimit:10;" d="M277.81,543.862
					c46.379-125.246,162.884-54.354,195.361-100.388c21.451-30.326-13.744-72.887,10.334-84.272
					c18.098-8.558,77.878,72.825,99.013,63.558c28.888-12.666-66.491-63.871-54.099-92.627
					c15.042-34.906,89.778,38.142,101.998-0.564c12.22-38.707-33.281-116.759,20.522-143.843c51.002-25.673,109.117,39,138.958-4.16
					"/>
				<path style="fill:none;stroke:#7429D5;stroke-width:0.5455;stroke-miterlimit:10;" d="M276.241,543.514
					c47.184-127.513,165.352-56.017,198.164-102.754c21.665-30.783-13.79-73.016,10.252-84.594
					c17.881-8.611,78.552,71.884,99.559,62.468c28.713-12.87-66.874-63.185-54.754-91.973c14.712-34.945,89.89,37.328,101.754-1.386
					c11.864-38.714-34.189-116.217,19.259-143.671c50.665-26.025,109.191,38.028,138.597-5.271"/>
				<path style="fill:none;stroke:#7229D4;stroke-width:0.544;stroke-miterlimit:10;" d="M274.673,543.166
					c47.989-129.78,167.82-57.679,200.966-105.12c21.88-31.24-13.835-73.143,10.17-84.916
					c17.665-8.664,79.225,70.942,100.105,61.377c28.539-13.073-67.258-62.498-55.409-91.319
					c14.382-34.985,90.001,36.514,101.51-2.208c11.509-38.722-35.097-115.674,17.996-143.499
					c50.329-26.376,109.264,37.056,138.236-6.383"/>
				<path style="fill:none;stroke:#702AD3;stroke-width:0.5426;stroke-miterlimit:10;" d="M273.105,542.819
					c48.794-132.047,170.289-59.342,203.769-107.487c22.094-31.697-13.879-73.268,10.088-85.237
					c17.449-8.715,79.899,70,100.651,60.287c28.364-13.276-67.641-61.812-56.065-90.665c14.052-35.025,90.113,35.7,101.266-3.03
					c11.153-38.73-36.005-115.132,16.733-143.327c49.992-26.727,109.337,36.084,137.875-7.494"/>
				<path style="fill:none;stroke:#6E2AD2;stroke-width:0.5412;stroke-miterlimit:10;" d="M271.536,542.471
					c49.6-134.314,172.757-61.005,206.571-109.853c22.308-32.154-13.922-73.391,10.006-85.559
					c17.234-8.764,80.573,69.058,101.197,59.196c28.189-13.48-68.025-61.126-56.72-90.012
					c13.722-35.064,90.224,34.886,101.022-3.851c10.798-38.738-36.913-114.59,15.471-143.156
					c49.656-27.079,109.411,35.112,137.514-8.606"/>
				<path style="fill:none;stroke:#6D2AD1;stroke-width:0.5398;stroke-miterlimit:10;" d="M269.968,542.123
					c50.405-136.581,175.225-62.668,209.374-112.219c22.522-32.611-13.964-73.512,9.924-85.881
					c17.02-8.813,81.247,68.116,101.743,58.105c28.014-13.683-68.408-60.439-57.376-89.358
					c13.392-35.104,90.336,34.073,100.778-4.673c10.442-38.746-37.821-114.047,14.208-142.984
					c49.319-27.43,109.484,34.139,137.153-9.718"/>
				<path style="fill:none;stroke:#6B2BD0;stroke-width:0.5384;stroke-miterlimit:10;" d="M268.399,541.776
					c51.21-138.848,177.693-64.331,212.176-114.585c22.736-33.068-14.004-73.631,9.842-86.202
					c16.807-8.86,81.921,67.175,102.289,57.015c27.84-13.887-68.792-59.753-58.031-88.704
					c13.062-35.143,90.447,33.259,100.534-5.495c10.086-38.753-38.729-113.505,12.945-142.812
					c48.983-27.781,109.558,33.168,136.792-10.829"/>
				<path style="fill:none;stroke:#692BCF;stroke-width:0.5369;stroke-miterlimit:10;" d="M266.831,541.428
					c52.015-141.115,180.161-65.994,214.978-116.952c22.951-33.525-14.043-73.749,9.76-86.524
					c16.595-8.906,82.595,66.233,102.835,55.924c27.665-14.09-69.175-59.066-58.686-88.05c12.732-35.183,90.559,32.445,100.29-6.317
					s-39.637-112.962,11.682-142.64c48.647-28.133,109.631,32.195,136.431-11.941"/>
				<path style="fill:none;stroke:#672BCE;stroke-width:0.5355;stroke-miterlimit:10;" d="M265.263,541.08
					c52.82-143.382,182.63-67.657,217.781-119.318c23.165-33.982-14.081-73.864,9.678-86.846
					c16.383-8.952,83.268,65.291,103.381,54.834c27.49-14.293-69.558-58.38-59.342-87.396c12.402-35.222,90.67,31.631,100.046-7.138
					c9.375-38.769-40.545-112.42,10.419-142.469c48.31-28.484,109.705,31.223,136.07-13.053"/>
				<path style="fill:none;stroke:#662BCD;stroke-width:0.5341;stroke-miterlimit:10;" d="M263.694,540.732
					c53.625-145.649,185.098-69.32,220.583-121.684c23.379-34.439-14.117-73.977,9.596-87.167
					c16.173-8.996,83.942,64.349,103.927,53.743c27.315-14.497-69.942-57.694-59.997-86.743
					c12.072-35.262,90.782,30.817,99.802-7.96c9.02-38.777-41.453-111.877,9.156-142.297
					c47.974-28.835,109.778,30.251,135.709-14.164"/>
				<path style="fill:none;stroke:#642CCC;stroke-width:0.5327;stroke-miterlimit:10;" d="M262.126,540.385
					c54.43-147.916,187.566-70.983,223.386-124.051c23.593-34.896-14.151-74.089,9.514-87.489
					c15.963-9.039,84.616,63.408,104.473,52.652c27.141-14.7-70.325-57.007-60.653-86.089c11.742-35.301,90.894,30.003,99.558-8.782
					c8.664-38.785-42.361-111.335,7.893-142.125c47.637-29.187,109.852,29.279,135.348-15.276"/>
				<path style="fill:none;stroke:#622CCB;stroke-width:0.5313;stroke-miterlimit:10;" d="M260.557,540.037
					c55.235-150.183,190.034-72.646,226.188-126.417c23.807-35.353-14.184-74.198,9.432-87.811
					c15.754-9.081,85.29,62.466,105.019,51.562c26.966-14.904-70.709-56.321-61.308-85.435
					c11.412-35.341,91.005,29.189,99.314-9.604c8.309-38.793-43.269-110.793,6.63-141.953
					c47.301-29.538,109.925,28.307,134.987-16.388"/>
				<path style="fill:none;stroke:#602CCA;stroke-width:0.5298;stroke-miterlimit:10;" d="M258.989,539.69
					c56.04-152.45,192.503-74.309,228.99-128.783c24.022-35.81-14.216-74.305,9.351-88.132
					c15.546-9.122,85.964,61.524,105.565,50.471c26.791-15.107-71.092-55.635-61.963-84.781
					c11.082-35.38,91.117,28.375,99.07-10.426c7.953-38.801-44.177-110.25,5.367-141.782
					c46.964-29.889,109.998,27.335,134.626-17.499"/>
				<path style="fill:none;stroke:#5E2DC9;stroke-width:0.5284;stroke-miterlimit:10;" d="M257.42,539.342
					c56.845-154.717,194.971-75.972,231.793-131.15c24.236-36.267-14.245-74.41,9.269-88.454
					c15.339-9.162,86.637,60.582,106.111,49.381c26.617-15.31-71.476-54.948-62.619-84.127
					c10.751-35.42,91.228,27.561,98.826-11.247c7.598-38.808-45.085-109.708,4.104-141.61
					c46.628-30.241,110.072,26.363,134.265-18.611"/>
				<path style="fill:none;stroke:#5D2DC8;stroke-width:0.527;stroke-miterlimit:10;" d="M255.852,538.994
					c57.65-156.984,197.439-77.635,234.595-133.516c24.45-36.724-14.273-74.512,9.187-88.775
					c15.134-9.201,87.311,59.641,106.657,48.29c26.442-15.514-71.859-54.262-63.274-83.474
					c10.421-35.459,91.34,26.747,98.582-12.069c7.242-38.816-45.993-109.165,2.841-141.438
					c46.292-30.592,110.145,25.391,133.904-19.722"/>
				<path style="fill:none;stroke:#5B2DC7;stroke-width:0.5256;stroke-miterlimit:10;" d="M254.284,538.646
					c58.455-159.251,199.907-79.298,237.398-135.882c24.664-37.181-14.298-74.613,9.105-89.097
					c14.929-9.239,87.985,58.699,107.203,47.199c26.267-15.717-72.243-53.576-63.929-82.82
					c10.091-35.499,91.451,25.933,98.338-12.891c6.886-38.824-46.901-108.623,1.578-141.266
					c45.955-30.944,110.219,24.419,133.543-20.834"/>
				<path style="fill:none;stroke:#592DC6;stroke-width:0.5242;stroke-miterlimit:10;" d="M252.715,538.299
					c59.26-161.518,202.375-80.961,240.2-138.249c24.879-37.638-14.322-74.711,9.023-89.419
					c14.725-9.277,88.659,57.757,107.749,46.109c26.092-15.921-72.626-52.889-64.585-82.166
					c9.761-35.538,91.563,25.119,98.094-13.713c6.531-38.832-47.809-108.08,0.315-141.094
					c45.619-31.295,110.292,23.447,133.182-21.946"/>
				<path style="fill:none;stroke:#572EC6;stroke-width:0.5227;stroke-miterlimit:10;" d="M251.147,537.951
					c60.066-163.785,204.843-82.624,243.002-140.615c25.093-38.095-14.343-74.808,8.941-89.74
					c14.522-9.313,89.332,56.815,108.295,45.018c25.918-16.124-73.01-52.203-65.24-81.512c9.431-35.578,91.674,24.305,97.85-14.535
					c6.175-38.84-48.717-107.538-0.947-140.923c45.282-31.646,110.365,22.475,132.821-23.057"/>
				<path style="fill:none;stroke:#562EC5;stroke-width:0.5213;stroke-miterlimit:10;" d="M249.578,537.603
					c60.871-166.052,207.312-84.286,245.805-142.981c25.307-38.552-14.362-74.902,8.859-90.062
					c14.321-9.349,90.006,55.873,108.841,43.928c25.743-16.328-73.393-51.516-65.896-80.858
					c9.101-35.617,91.786,23.491,97.606-15.356c5.82-38.847-49.625-106.996-2.21-140.751
					c44.946-31.998,110.439,21.503,132.46-24.169"/>
				<path style="fill:none;stroke:#542EC4;stroke-width:0.5199;stroke-miterlimit:10;" d="M248.01,537.256
					c61.676-168.319,209.78-85.949,248.607-145.347c25.521-39.009-14.379-74.994,8.777-90.384
					c14.12-9.385,90.68,54.932,109.387,42.837c25.568-16.531-73.777-50.83-66.551-80.204c8.771-35.657,91.898,22.677,97.362-16.178
					s-50.533-106.453-3.473-140.579c44.609-32.349,110.512,20.531,132.099-25.28"/>
				<path style="fill:none;stroke:#522EC3;stroke-width:0.5185;stroke-miterlimit:10;" d="M246.441,536.908
					c62.481-170.586,212.248-87.612,251.41-147.714c25.735-39.466-14.394-75.083,8.695-90.705
					c13.921-9.419,91.354,53.99,109.933,41.746c25.393-16.734-74.16-50.144-67.206-79.551c8.441-35.696,92.009,21.863,97.118-17
					c5.109-38.863-51.441-105.911-4.736-140.408c44.273-32.7,110.586,19.559,131.737-26.392"/>
				<path style="fill:none;stroke:#502FC2;stroke-width:0.5171;stroke-miterlimit:10;" d="M244.873,536.56
					c63.286-172.853,214.716-89.275,254.212-150.08c25.949-39.923-14.406-75.171,8.613-91.027
					c13.723-9.453,92.028,53.048,110.479,40.656c25.219-16.938-74.543-49.457-67.862-78.897
					c8.111-35.736,92.121,21.049,96.874-17.822c4.753-38.871-52.349-105.368-5.999-140.236
					c43.936-33.052,110.659,18.587,131.376-27.504"/>
				<path style="fill:none;stroke:#4E2FC1;stroke-width:0.5157;stroke-miterlimit:10;" d="M243.305,536.213
					c64.091-175.12,217.184-90.938,257.015-152.446c26.164-40.38-14.415-75.256,8.531-91.349
					c13.526-9.486,92.701,52.106,111.025,39.565c25.044-17.141-74.927-48.771-68.517-78.243
					c7.781-35.775,92.232,20.235,96.63-18.644c4.398-38.879-53.257-104.826-7.262-140.064
					c43.6-33.403,110.733,17.615,131.015-28.615"/>
				<path style="fill:none;stroke:#4D2FC0;stroke-width:0.5142;stroke-miterlimit:10;" d="M241.736,535.865
					c64.896-177.387,219.653-92.601,259.817-154.813c26.378-40.837-14.422-75.339,8.449-91.67
					c13.331-9.519,93.375,51.165,111.571,38.475c24.869-17.345-75.31-48.085-69.172-77.589
					c7.451-35.815,92.344,19.421,96.386-19.465c4.042-38.887-54.165-104.283-8.525-139.892
					c43.264-33.754,110.806,16.643,130.654-29.727"/>
				<path style="fill:none;stroke:#4B30BF;stroke-width:0.5128;stroke-miterlimit:10;" d="M240.168,535.517
					c65.701-179.654,222.121-94.264,262.62-157.179c26.592-41.294-14.426-75.419,8.367-91.992
					c13.137-9.551,94.049,50.223,112.117,37.384c24.695-17.548-75.694-47.398-69.828-76.935
					c7.121-35.854,92.455,18.607,96.142-20.287c3.687-38.894-55.073-103.741-9.788-139.72
					c42.927-34.106,110.879,15.671,130.293-30.839"/>
				<path style="fill:none;stroke:#4930BE;stroke-width:0.5114;stroke-miterlimit:10;" d="M238.599,535.17
					c66.506-181.921,224.589-95.927,265.422-159.545c26.806-41.751-14.427-75.498,8.286-92.313
					c12.943-9.583,94.723,49.281,112.663,36.293c24.52-17.751-76.077-46.712-70.483-76.281
					c6.791-35.894,92.567,17.793,95.898-21.109c3.331-38.902-55.981-103.198-11.051-139.549
					c42.591-34.457,110.953,14.699,129.932-31.95"/>
				<path style="fill:none;stroke:#4730BD;stroke-width:0.51;stroke-miterlimit:10;" d="M237.031,534.822
					c67.311-184.188,227.057-97.59,268.224-161.912c27.021-42.208-14.425-75.574,8.204-92.635
					c12.752-9.614,95.397,48.339,113.208,35.203c24.345-17.955-76.461-46.025-71.138-75.628
					c6.461-35.934,92.679,16.979,95.654-21.931c2.976-38.91-56.889-102.656-12.314-139.377
					C681.123,43.735,749.896,92.27,768.44,45.481"/>
				<path style="fill:none;stroke:#4630BC;stroke-width:0.5086;stroke-miterlimit:10;" d="M235.462,534.474
					c68.116-186.455,229.526-99.253,271.027-164.278c27.235-42.665-14.42-75.648,8.122-92.957
					c12.561-9.645,96.071,47.398,113.754,34.112c24.171-18.158-76.844-45.339-71.794-74.974c6.13-35.973,92.79,16.165,95.41-22.753
					c2.62-38.918-57.797-102.114-13.577-139.205c41.918-35.16,111.1,12.755,129.21-34.173"/>
				<path style="fill:none;stroke:#4431BB;stroke-width:0.5071;stroke-miterlimit:10;" d="M233.894,534.127
					c68.921-188.722,231.994-100.916,273.829-166.644c27.449-43.122-14.412-75.72,8.04-93.278
					c12.372-9.676,96.744,46.456,114.3,33.022c23.996-18.362-77.228-44.653-72.449-74.32c5.8-36.013,92.902,15.351,95.166-23.574
					c2.264-38.926-58.705-101.571-14.84-139.033c41.581-35.511,111.173,11.783,128.849-35.285"/>
				<path style="fill:none;stroke:#4231BA;stroke-width:0.5057;stroke-miterlimit:10;" d="M232.326,533.779
					c69.726-190.989,234.462-102.579,276.632-169.01c27.663-43.579-14.4-75.789,7.958-93.6
					c12.185-9.706,97.418,45.514,114.846,31.931c23.821-18.565-77.611-43.966-73.105-73.666
					c5.47-36.052,93.013,14.538,94.922-24.396c1.909-38.934-59.613-101.029-16.103-138.862
					c41.245-35.863,111.247,10.811,128.488-36.397"/>
			</g>
			<g>
				<path style="fill:none;stroke:#C21DFF;stroke-width:0.5516;stroke-miterlimit:10;" d="M-11.259,343.329
					c67.787-7.44,35.547-151.28,89.381-150.231c55.321,1.079,48.259,72.29,87.114,53.662
					c36.06-17.288-52.157-157.218,12.323-201.032c30.625-20.809,77.143,70.392,118.11,47.623
					c25.609-14.233,2.246-130.29,66.001-96.174"/>
				<path style="fill:none;stroke:#C01DFE;stroke-width:0.5516;stroke-miterlimit:10;" d="M-13.234,341.225
					c67.403-7.16,34.868-150.483,88.656-150.117c55.248,0.395,48.259,72.29,87.114,53.662
					c36.06-17.288-52.309-156.211,12.171-200.024c30.625-20.809,77.268,69.331,118.262,46.615
					c26.008-14.378,3.705-129.047,66-96.174"/>
				<path style="fill:none;stroke:#BD1EFD;stroke-width:0.5516;stroke-miterlimit:10;" d="M-15.21,339.122
					c67.019-6.879,34.189-149.686,87.931-150.002c55.176-0.288,48.259,72.29,87.114,53.662
					c36.06-17.288-52.461-155.203,12.019-199.016c30.625-20.809,77.392,68.27,118.414,45.608c26.408-14.523,5.165-127.803,66-96.174
					"/>
				<path style="fill:none;stroke:#BB1EFB;stroke-width:0.5516;stroke-miterlimit:10;" d="M-17.185,337.019
					C49.45,330.42,16.324,188.13,70.021,187.13c55.103-0.972,48.259,72.29,87.114,53.662
					c36.06-17.288-52.613-154.195,11.868-198.008c30.625-20.809,77.517,67.209,118.565,44.6c26.808-14.668,6.624-126.56,66-96.174"
					/>
				<path style="fill:none;stroke:#B91EFA;stroke-width:0.5516;stroke-miterlimit:10;" d="M-19.161,334.915
					c66.252-6.318,32.831-148.092,86.481-149.774c55.031-1.656,48.259,72.29,87.114,53.662
					c36.06-17.288-52.764-153.187,11.716-197.001c30.625-20.809,77.642,66.148,118.717,43.592
					c27.208-14.813,8.084-125.316,66-96.174"/>
				<path style="fill:none;stroke:#B71FF9;stroke-width:0.5516;stroke-miterlimit:10;" d="M-21.136,332.812
					c65.868-6.038,32.152-147.295,85.756-149.66c54.958-2.339,48.259,72.29,87.114,53.662
					c36.06-17.288-52.916-152.179,11.564-195.993c30.625-20.809,77.717,64.997,118.869,42.584
					c27.575-15.018,9.543-124.073,66.001-96.174"/>
				<path style="fill:none;stroke:#B41FF8;stroke-width:0.5516;stroke-miterlimit:10;" d="M-23.112,330.708
					c65.484-5.757,31.472-146.497,85.031-149.546c54.885-3.023,48.259,72.29,87.114,53.662
					c36.06-17.288-53.068-151.172,11.412-194.985c30.625-20.809,77.834,63.921,119.021,41.576
					c27.969-15.174,11.003-122.829,66-96.174"/>
				<path style="fill:none;stroke:#B220F6;stroke-width:0.5516;stroke-miterlimit:10;" d="M-25.088,328.605
					c65.1-5.477,30.793-145.7,84.305-149.432c54.813-3.706,48.259,72.29,87.114,53.662c36.06-17.288-53.22-150.164,11.26-193.977
					c30.625-20.809,77.952,62.846,119.173,40.568c28.363-15.329,12.462-121.586,66.001-96.174"/>
				<path style="fill:none;stroke:#B020F5;stroke-width:0.5516;stroke-miterlimit:10;" d="M-27.063,326.502
					c64.716-5.196,30.114-144.903,83.58-149.318c54.74-4.39,48.259,72.29,87.114,53.662c36.06-17.288-53.372-149.156,11.108-192.969
					c30.625-20.809,78.07,61.773,119.325,39.561c28.758-15.484,13.922-120.342,66-96.174"/>
				<path style="fill:none;stroke:#AD20F4;stroke-width:0.5516;stroke-miterlimit:10;" d="M-29.039,324.398
					c64.333-4.916,29.435-144.106,82.855-149.204c54.667-5.073,48.259,72.29,87.114,53.662
					c36.06-17.288-53.524-148.148,10.956-191.962c30.625-20.809,78.188,60.7,119.476,38.553
					c29.153-15.638,15.381-119.099,66.001-96.174"/>
				<path style="fill:none;stroke:#AB21F3;stroke-width:0.5516;stroke-miterlimit:10;" d="M-31.014,322.295
					c63.949-4.635,28.756-143.309,82.13-149.09c54.595-5.757,48.259,72.29,87.114,53.662c36.06-17.288-53.676-147.14,10.805-190.954
					c30.625-20.809,78.307,59.628,119.628,37.545c29.548-15.792,16.841-117.855,66-96.174"/>
				<path style="fill:none;stroke:#A921F1;stroke-width:0.5516;stroke-miterlimit:10;" d="M-32.99,320.192
					c63.565-4.355,28.077-142.512,81.405-148.975c54.522-6.44,48.259,72.29,87.114,53.662
					c36.06-17.288-53.827-146.133,10.653-189.946c30.625-20.809,78.427,58.558,119.78,36.537
					c29.944-15.945,18.3-116.612,66.001-96.174"/>
				<path style="fill:none;stroke:#A721F0;stroke-width:0.5516;stroke-miterlimit:10;" d="M-34.965,318.088
					c63.181-4.074,27.398-141.715,80.68-148.861c54.449-7.124,48.259,72.29,87.114,53.662
					c36.06-17.288-53.979-145.125,10.501-188.938c30.625-20.809,78.548,57.488,119.932,35.53c30.339-16.098,19.76-115.368,66-96.174
					"/>
				<path style="fill:none;stroke:#A422EF;stroke-width:0.5516;stroke-miterlimit:10;" d="M-36.941,315.985
					c62.797-3.794,26.719-140.917,79.955-148.747c54.377-7.807,48.259,72.29,87.114,53.662
					c36.06-17.288-54.131-144.117,10.349-187.93c30.625-20.809,78.668,56.419,120.084,34.522
					c30.736-16.25,21.219-114.125,66.001-96.174"/>
				<path style="fill:none;stroke:#A222EE;stroke-width:0.5516;stroke-miterlimit:10;" d="M-38.917,313.882
					c62.413-3.513,26.04-140.12,79.229-148.633c54.304-8.491,48.259,72.29,87.114,53.662
					c36.06-17.288-54.283-143.109,10.197-186.923c30.625-20.809,78.789,55.35,120.236,33.514
					c31.132-16.402,22.679-112.882,66-96.174"/>
				<path style="fill:none;stroke:#A022ED;stroke-width:0.5516;stroke-miterlimit:10;" d="M-40.892,311.778
					c62.03-3.233,25.361-139.323,78.504-148.519c54.231-9.175,48.259,72.29,87.114,53.662
					c36.06-17.288-54.435-142.102,10.045-185.915c30.625-20.809,78.911,54.283,120.388,32.506
					c31.529-16.553,24.138-111.638,66-96.174"/>
				<path style="fill:none;stroke:#9D23EB;stroke-width:0.5516;stroke-miterlimit:10;" d="M-42.868,309.675
					c61.646-2.952,24.682-138.526,77.779-148.405c54.159-9.858,48.259,72.29,87.114,53.662
					c36.06-17.288-54.587-141.094,9.894-184.907c30.625-20.809,79.033,53.216,120.539,31.498
					c31.925-16.705,25.598-110.395,66.001-96.174"/>
				<path style="fill:none;stroke:#9B23EA;stroke-width:0.5516;stroke-miterlimit:10;" d="M-44.843,307.571
					c61.262-2.672,23.982-137.836,77.054-148.291c54.065-10.651,48.259,72.29,87.114,53.662
					c36.06-17.288-54.738-140.086,9.742-183.899c30.625-20.809,79.155,52.15,120.691,30.49c32.323-16.855,27.057-109.151,66-96.174"
					/>
				<path style="fill:none;stroke:#9923E9;stroke-width:0.5516;stroke-miterlimit:10;" d="M-46.819,305.468
					c60.878-2.391,23.301-137.041,76.329-148.177c53.99-11.337,48.259,72.29,87.114,53.662c36.06-17.288-54.89-139.078,9.59-182.891
					c30.625-20.809,79.278,51.085,120.843,29.483c32.72-17.005,28.517-107.908,66.001-96.174"/>
				<path style="fill:none;stroke:#9724E8;stroke-width:0.5516;stroke-miterlimit:10;" d="M-48.794,303.365
					c60.494-2.111,22.62-136.247,75.604-148.063c53.916-12.023,48.259,72.29,87.114,53.662
					c36.06-17.288-55.042-138.07,9.438-181.884c30.625-20.809,79.401,50.02,120.995,28.475c33.118-17.155,29.977-106.664,66-96.174"
					/>
				<path style="fill:none;stroke:#9424E6;stroke-width:0.5516;stroke-miterlimit:10;" d="M-50.77,301.261
					c60.111-1.83,21.939-135.452,74.879-147.948c53.841-12.709,48.259,72.29,87.114,53.662
					c36.06-17.288-55.194-137.062,9.286-180.876c30.625-20.809,79.525,48.956,121.147,27.467
					c33.515-17.304,31.436-105.421,66.001-96.174"/>
				<path style="fill:none;stroke:#9225E5;stroke-width:0.5516;stroke-miterlimit:10;" d="M-52.745,299.158
					c59.727-1.55,21.257-134.657,74.153-147.834c53.766-13.394,48.259,72.29,87.114,53.662
					c36.06-17.288-55.346-136.055,9.134-179.868c30.625-20.809,79.649,47.893,121.299,26.459
					c33.914-17.453,32.896-104.177,66-96.174"/>
				<path style="fill:none;stroke:#9025E4;stroke-width:0.5516;stroke-miterlimit:10;" d="M-54.721,297.055
					c59.343-1.27,20.577-133.861,73.428-147.72c53.692-14.079,48.259,72.29,87.114,53.662c36.06-17.288-55.498-135.047,8.982-178.86
					c30.625-20.809,79.773,46.83,121.451,25.452c34.312-17.601,34.355-102.934,66.001-96.174"/>
				<path style="fill:none;stroke:#8D25E3;stroke-width:0.5516;stroke-miterlimit:10;" d="M-56.696,294.951
					c58.959-0.989,19.896-133.065,72.703-147.606c53.617-14.764,48.259,72.29,87.114,53.662
					c36.06-17.288-55.649-134.039,8.831-177.852c30.625-20.809,79.897,45.768,121.602,24.444c34.711-17.748,35.815-101.69,66-96.174
					"/>
				<path style="fill:none;stroke:#8B26E1;stroke-width:0.5516;stroke-miterlimit:10;" d="M-58.672,292.848
					c58.575-0.708,19.215-132.269,71.978-147.492c53.543-15.448,48.259,72.29,87.114,53.662
					c36.06-17.288-55.801-133.031,8.679-176.845c30.625-20.809,80.022,44.707,121.754,23.436
					c35.11-17.895,37.274-100.447,66.001-96.174"/>
				<path style="fill:none;stroke:#8926E0;stroke-width:0.5516;stroke-miterlimit:10;" d="M-60.648,290.744
					c58.192-0.428,18.534-131.472,71.253-147.378c53.468-16.132,48.259,72.29,87.114,53.662
					c36.06-17.288-55.953-132.023,8.527-175.837c30.625-20.809,80.147,43.646,121.906,22.428
					c35.509-18.042,38.734-99.203,66.001-96.174"/>
				<path style="fill:none;stroke:#8726DF;stroke-width:0.5516;stroke-miterlimit:10;" d="M-62.623,288.641
					c57.808-0.148,17.853-130.675,70.528-147.264c53.394-16.816,48.259,72.29,87.114,53.662
					c36.06-17.288-56.105-131.016,8.375-174.829c30.625-20.809,80.273,42.585,122.058,21.42
					c35.908-18.188,40.193-97.96,66.001-96.174"/>
				<path style="fill:none;stroke:#8427DE;stroke-width:0.5516;stroke-miterlimit:10;" d="M-64.599,286.538
					c57.424,0.133,17.173-129.877,69.803-147.15c53.32-17.499,48.259,72.29,87.114,53.662
					c36.06-17.288-56.257-130.008,8.223-173.821c30.625-20.809,80.399,41.526,122.21,20.413
					c36.308-18.334,41.653-96.716,66.001-96.174"/>
				<path style="fill:none;stroke:#8227DD;stroke-width:0.5516;stroke-miterlimit:10;" d="M-66.574,284.434
					c57.04,0.413,16.492-129.08,69.077-147.035c53.246-18.182,48.259,72.29,87.114,53.662c36.06-17.288-56.409-129,8.071-172.813
					c30.625-20.809,80.524,40.466,122.362,19.405c36.708-18.479,43.112-95.473,66.001-96.174"/>
				<path style="fill:none;stroke:#8027DB;stroke-width:0.5516;stroke-miterlimit:10;" d="M-68.55,282.331
					c56.656,0.694,15.812-128.281,68.352-146.921c53.172-18.864,48.259,72.29,87.114,53.662
					c36.06-17.288-56.561-127.992,7.92-171.806c30.625-20.809,80.651,39.408,122.513,18.397
					c37.108-18.624,44.572-94.23,66.001-96.174"/>
				<path style="fill:none;stroke:#7D28DA;stroke-width:0.5516;stroke-miterlimit:10;" d="M-70.525,280.228
					c56.272,0.974,15.132-127.483,67.627-146.807c53.098-19.546,48.259,72.29,87.114,53.662
					c36.06-17.289-56.712-126.985,7.768-170.798c30.625-20.809,80.777,38.349,122.665,17.389c37.508-18.768,46.031-92.986,66-96.174
					"/>
				<path style="fill:none;stroke:#7B28D9;stroke-width:0.5516;stroke-miterlimit:10;" d="M-72.501,278.124
					c55.889,1.255,14.452-126.684,66.902-146.693c53.025-20.228,48.259,72.29,87.114,53.662
					c36.06-17.288-56.864-125.977,7.616-169.79c30.625-20.809,80.904,37.291,122.817,16.382
					c37.909-18.912,47.491-91.743,66.001-96.174"/>
				<path style="fill:none;stroke:#7928D8;stroke-width:0.5516;stroke-miterlimit:10;" d="M-74.477,276.021
					c55.505,1.535,13.772-125.885,66.177-146.579c52.951-20.91,48.259,72.29,87.114,53.662
					c36.06-17.289-57.016-124.969,7.464-168.782c30.625-20.809,81.031,36.234,122.969,15.374c38.31-19.056,48.95-90.499,66-96.174"
					/>
				<path style="fill:none;stroke:#7729D6;stroke-width:0.5516;stroke-miterlimit:10;" d="M-76.452,273.917
					C-21.331,275.733-63.36,148.831-11,127.452c52.878-21.591,48.259,72.29,87.114,53.662
					c36.06-17.288-57.168-123.961,7.312-167.775c30.625-20.809,81.158,35.177,123.121,14.366
					c38.711-19.198,50.41-89.256,66.001-96.174"/>
				<path style="fill:none;stroke:#7429D5;stroke-width:0.5516;stroke-miterlimit:10;" d="M-78.428,271.814
					c54.737,2.096,12.413-124.286,64.727-146.351c52.805-22.272,48.259,72.29,87.114,53.662
					c36.06-17.288-57.32-122.953,7.16-166.767c30.625-20.809,81.285,34.121,123.273,13.358c39.112-19.341,51.869-88.012,66-96.174"
					/>
				<path style="fill:none;stroke:#7229D4;stroke-width:0.5516;stroke-miterlimit:10;" d="M-80.403,269.711
					c54.353,2.377,11.734-123.486,64.001-146.237c52.732-22.953,48.259,72.29,87.114,53.662
					C106.772,159.847,13.24,55.19,77.72,11.377c30.625-20.809,81.412,33.065,123.425,12.35
					c39.514-19.482,53.329-86.769,66.001-96.174"/>
				<path style="fill:none;stroke:#702AD3;stroke-width:0.5516;stroke-miterlimit:10;" d="M-82.379,267.607
					c53.97,2.657,11.101-122.583,63.276-146.123c52.706-23.529,48.259,72.29,87.114,53.662
					c36.06-17.288-57.623-120.938,6.857-164.751c30.625-20.809,81.54,32.009,123.576,11.343c39.915-19.624,54.788-85.525,66-96.174"
					/>
				<path style="fill:none;stroke:#6D2AD1;stroke-width:0.5516;stroke-miterlimit:10;" d="M-84.354,265.504
					c53.586,2.938,10.422-121.786,62.551-146.008c52.633-24.213,48.259,72.29,87.114,53.662
					c36.06-17.288-57.775-119.93,6.705-163.743c30.625-20.809,81.668,30.954,123.728,10.335
					c40.317-19.765,56.248-84.282,66.001-96.174"/>
				<path style="fill:none;stroke:#6B2BD0;stroke-width:0.5516;stroke-miterlimit:10;" d="M-86.33,263.401
					c53.202,3.218,9.743-120.989,61.826-145.894c52.561-24.896,48.259,72.29,87.114,53.662C98.67,153.88,4.683,52.246,69.163,8.432
					c30.625-20.809,81.796,29.899,123.88,9.327c40.72-19.905,57.707-83.038,66.001-96.174"/>
				<path style="fill:none;stroke:#692BCF;stroke-width:0.5516;stroke-miterlimit:10;" d="M-88.305,261.297
					c52.818,3.499,9.064-120.192,61.101-145.78c52.488-25.58,48.259,72.29,87.114,53.662C95.969,151.89,1.83,51.264,66.31,7.451
					c30.625-20.809,81.924,28.845,124.032,8.319c41.122-20.045,59.167-81.795,66.001-96.174"/>
				<path style="fill:none;stroke:#672BCE;stroke-width:0.5516;stroke-miterlimit:10;" d="M-90.281,259.194
					c52.434,3.779,8.385-119.395,60.376-145.666c52.416-26.263,48.259,72.29,87.114,53.662
					c36.06-17.288-58.231-116.907,6.249-160.72C94.083-14.34,145.51,34.26,187.641,13.781
					c41.525-20.184,60.626-80.551,66.001-96.174"/>
				<path style="fill:none;stroke:#642CCC;stroke-width:0.5516;stroke-miterlimit:10;" d="M-92.257,257.09
					c52.051,4.06,7.706-118.597,59.651-145.552c52.343-26.947,48.259,72.29,87.114,53.662C90.568,147.912-3.875,49.301,60.605,5.488
					c30.625-20.809,82.181,26.737,124.336,6.304c41.928-20.323,62.086-79.308,66.001-96.174"/>
				<path style="fill:none;stroke:#622CCB;stroke-width:0.5516;stroke-miterlimit:10;" d="M-94.232,254.987
					c51.667,4.34,7.027-117.8,58.925-145.438c52.27-27.63,48.259,72.29,87.114,53.662C87.867,145.923-6.727,48.32,57.753,4.506
					c30.625-20.809,82.31,25.684,124.487,5.296c42.331-20.462,63.545-78.065,66.001-96.174"/>
				<path style="fill:none;stroke:#602CCA;stroke-width:0.5516;stroke-miterlimit:10;" d="M-96.208,252.884
					c51.283,4.62,6.348-117.003,58.2-145.324c52.198-28.314,48.259,72.29,87.114,53.662C85.166,143.933-9.58,47.338,54.9,3.525
					c30.625-20.809,82.438,24.631,124.639,4.288c42.734-20.599,65.005-76.821,66.001-96.174"/>
				<path style="fill:none;stroke:#5D2DC9;stroke-width:0.5516;stroke-miterlimit:10;" d="M-98.183,250.78
					c50.899,4.901,5.669-116.206,57.475-145.21c52.125-28.998,48.259,72.29,87.114,53.662
					c36.06-17.289-58.838-112.876,5.642-156.689c30.625-20.809,82.567,23.578,124.791,3.28
					c43.137-20.737,66.464-75.577,66.001-96.174"/>
				<path style="fill:none;stroke:#5B2DC8;stroke-width:0.5516;stroke-miterlimit:10;" d="M-100.159,248.677
					c50.515,5.182,4.99-115.409,56.75-145.096C8.644,73.9,4.85,175.872,43.705,157.243c36.06-17.288-58.99-111.868,5.49-155.681
					c30.625-20.809,82.696,22.526,124.943,2.272c43.541-20.874,67.924-74.334,66.001-96.174"/>
				<path style="fill:none;stroke:#592DC6;stroke-width:0.5516;stroke-miterlimit:10;" d="M-102.134,246.573
					c50.132,5.462,4.31-114.612,56.025-144.981c51.98-30.365,48.259,72.29,87.114,53.662c36.06-17.289-59.142-110.86,5.338-154.673
					c30.625-20.809,82.826,21.474,125.095,1.265c43.945-21.01,69.383-73.091,66.001-96.174"/>
				<path style="fill:none;stroke:#572EC5;stroke-width:0.5516;stroke-miterlimit:10;" d="M-104.11,244.47
					c49.748,5.742,3.631-113.815,55.3-144.867c51.907-31.048,48.259,72.29,87.114,53.662C74.363,135.976-20.99,43.412,43.49-0.401
					c30.625-20.809,82.955,20.422,125.247,0.257c44.349-21.146,70.843-71.847,66.001-96.174"/>
				<path style="fill:none;stroke:#542EC4;stroke-width:0.5516;stroke-miterlimit:10;" d="M-106.086,242.367
					c49.364,6.023,2.952-113.017,54.575-144.753c51.835-31.732,48.259,72.29,87.114,53.662
					c36.06-17.288-59.446-108.844,5.035-152.658c30.625-20.809,83.084,19.371,125.398-0.751
					c44.754-21.282,72.302-70.604,66.001-96.174"/>
				<path style="fill:none;stroke:#522EC3;stroke-width:0.5516;stroke-miterlimit:10;" d="M-108.061,240.263
					c48.98,6.303,2.273-112.22,53.849-144.639c51.762-32.415,48.259,72.29,87.114,53.662c36.06-17.288-59.597-107.837,4.883-151.65
					c30.625-20.809,83.251,18.398,125.55-1.759c45.198-21.333,73.762-69.36,66-96.174"/>
				<path style="fill:none;stroke:#502FC1;stroke-width:0.5516;stroke-miterlimit:10;" d="M-110.037,238.16
					c48.596,6.584,1.594-111.423,53.124-144.525c51.689-33.099,48.259,72.29,87.114,53.662
					c36.06-17.288-59.749-106.829,4.731-150.642c30.625-20.809,83.376,17.337,125.702-2.767c45.598-21.478,75.221-68.117,66-96.174"
					/>
				<path style="fill:none;stroke:#4D2FC0;stroke-width:0.5516;stroke-miterlimit:10;" d="M-112.012,236.057
					c48.213,6.864,0.915-110.626,52.399-144.411c51.617-33.782,48.259,72.29,87.114,53.662C63.561,128.019-32.4,39.487,32.08-4.327
					c30.625-20.809,83.5,16.276,125.854-3.774c45.997-21.623,76.681-66.873,66-96.174"/>
				<path style="fill:none;stroke:#4B30BF;stroke-width:0.5516;stroke-miterlimit:10;" d="M-113.988,233.953
					c47.829,7.145,0.236-109.829,51.674-144.297c51.544-34.466,48.259,72.29,87.114,53.662C60.86,126.03-35.253,38.505,29.227-5.308
					c30.625-20.809,83.625,15.214,126.006-4.782c46.397-21.768,78.141-65.63,66.001-96.174"/>
				<path style="fill:none;stroke:#4930BE;stroke-width:0.5516;stroke-miterlimit:10;" d="M-115.963,231.85
					c47.445,7.425-0.443-109.032,50.949-144.183c51.471-35.149,48.259,72.29,87.114,53.662
					C58.159,124.041-38.105,37.524,26.375-6.29C57-27.099,110.124,7.864,152.532-12.08c46.797-21.913,79.6-64.386,66.001-96.174"/>
				<path style="fill:none;stroke:#4730BC;stroke-width:0.5516;stroke-miterlimit:10;" d="M-117.939,229.746
					c47.061,7.706-1.122-108.234,50.224-144.068c51.399-35.833,48.259,72.29,87.114,53.662
					c36.06-17.288-60.357-102.798,4.123-146.611c30.625-20.809,83.874,13.092,126.31-6.798
					c47.197-22.058,81.06-63.143,66.001-96.174"/>
				<path style="fill:none;stroke:#4431BB;stroke-width:0.5516;stroke-miterlimit:10;" d="M-119.914,227.643
					c46.677,7.986-1.801-107.437,49.499-143.954c51.326-36.516,48.259,72.29,87.114,53.662
					c36.06-17.288-60.508-101.79,3.972-145.603c30.625-20.809,83.999,12.031,126.461-7.806
					c47.596-22.202,82.519-61.899,66.001-96.174"/>
				<path style="fill:none;stroke:#4231BA;stroke-width:0.5516;stroke-miterlimit:10;" d="M-121.89,225.54
					c46.293,8.267-2.48-106.64,48.773-143.84c51.254-37.2,48.259,72.29,87.114,53.662c36.06-17.288-60.66-100.782,3.82-144.595
					c30.625-20.809,84.124,10.97,126.613-8.813c47.996-22.347,83.979-60.656,66.001-96.174"/>
			</g>
		</g>
	</g>
</g>
</svg>
